<?xml version="1.0" encoding="iso-8859-1"?>
<!-- Generator: Adobe Illustrator 19.0.0, SVG Export Plug-In . SVG Version: 6.00 Build 0)  -->
<svg version="1.1" id="Capa_1" xmlns="http://www.w3.org/2000/svg" xmlns:xlink="http://www.w3.org/1999/xlink" x="0px" y="0px"
	 viewBox="0 0 511.991 511.991" style="enable-background:new 0 0 511.991 511.991;" xml:space="preserve">
<path style="fill:white;" d="M373.329,511.991c-2.813,0-5.604-1.104-7.708-3.292L130.954,263.366
	c-3.937-4.125-3.937-10.625,0-14.75L365.621,3.283c4.104-4.229,10.854-4.406,15.083-0.333c4.25,4.073,4.396,10.823,0.333,15.083
	L153.433,255.991L381.037,493.95c4.063,4.26,3.917,11.01-0.333,15.083C378.641,511.012,375.975,511.991,373.329,511.991z"/>
<linearGradient id="SVGID_1_" gradientUnits="userSpaceOnUse" x1="-38.6962" y1="638.9046" x2="-24.3498" y2="632.2153" gradientTransform="matrix(21.3333 0 0 -21.3333 996.4224 13791.5693)">
	<stop  offset="0" style="stop-color:#FFFFFF;stop-opacity:0.2"/>
	<stop  offset="1" style="stop-color:#FFFFFF;stop-opacity:0"/>
</linearGradient>
<path style="fill:white;" d="M373.329,511.991c-2.813,0-5.604-1.104-7.708-3.292L130.954,263.366
	c-3.937-4.125-3.937-10.625,0-14.75L365.621,3.283c4.104-4.229,10.854-4.406,15.083-0.333c4.25,4.073,4.396,10.823,0.333,15.083
	L153.433,255.991L381.037,493.95c4.063,4.26,3.917,11.01-0.333,15.083C378.641,511.012,375.975,511.991,373.329,511.991z"/>
</svg>
